<svg id="Capa_1" enable-background="new 0 0 512 512" height="512" viewBox="0 0 512 512" width="512" xmlns="http://www.w3.org/2000/svg" xmlns:xlink="http://www.w3.org/1999/xlink"><linearGradient id="SVGID_1_" gradientUnits="userSpaceOnUse" x1="215.709" x2="852.345" y1="256" y2="256"><stop offset=".0007011211" stop-color="#fff0d5"/><stop offset=".5112" stop-color="#ffdfff"/><stop offset="1" stop-color="#d9ceff"/></linearGradient><path d="m408.228 154.262c-23.697-9.236-43.717-26.089-55.961-48.381-20.59-37.487-60.43-62.898-106.221-62.898-47.53 0-88.646 27.377-108.477 67.219-12.146 24.401-32.814 43.56-58.09 53.761-37.349 15.074-68.703 49.524-78.653 103.382-1.092 5.91-1.108 11.986-.016 17.896 15.448 83.572 82.399 120.435 143.334 110.66 34.126-5.474 68.672 5.909 93.967 29.462 51.434 47.892 133.884 62.907 213.923 11.57 9.377-6.014 21.957-18.634 27.966-28.015 68.967-107.67 17.879-219.714-71.772-254.656z" fill="url(#SVGID_1_)"/><g fill="#590bb2"><path d="m164.607 410.617h-90.038c-5.529 0-10.012-4.482-10.012-10.012v-320.379c0-5.529 4.482-10.012 10.012-10.012h90.037c5.529 0 10.012 4.482 10.012 10.012v320.379c0 5.529-4.482 10.012-10.011 10.012z" opacity=".1"/><path d="m301.019 410.617h-90.037c-5.529 0-10.012-4.482-10.012-10.012v-320.379c0-5.529 4.482-10.012 10.012-10.012h90.037c5.529 0 10.012 4.482 10.012 10.012v320.379c-.001 5.529-4.483 10.012-10.012 10.012z" opacity=".1"/><path d="m437.431 410.617h-90.037c-5.529 0-10.012-4.482-10.012-10.012v-320.379c0-5.529 4.482-10.012 10.012-10.012h90.037c5.529 0 10.012 4.482 10.012 10.012v320.379c-.001 5.529-4.483 10.012-10.012 10.012z" opacity=".1"/></g><path d="m164.607 431.642h-90.038c-5.529 0-10.012-4.482-10.012-10.012v-320.379c0-5.529 4.482-10.012 10.012-10.012h90.037c5.529 0 10.012 4.482 10.012 10.012v320.379c0 5.529-4.482 10.012-10.011 10.012z" fill="#f5f4f9"/><path d="m164.606 436.642h-90.037c-8.277 0-15.012-6.734-15.012-15.012v-320.379c0-8.277 6.734-15.012 15.012-15.012h90.037c8.277 0 15.012 6.734 15.012 15.012v259.537c0 2.762-2.239 5-5 5s-5-2.238-5-5v-259.537c0-2.764-2.248-5.012-5.012-5.012h-90.037c-2.764 0-5.012 2.248-5.012 5.012v320.379c0 2.764 2.248 5.012 5.012 5.012h90.037c2.764 0 5.012-2.248 5.012-5.012v-33.27c0-2.762 2.239-5 5-5s5 2.238 5 5v33.27c0 8.277-6.734 15.012-15.012 15.012z" fill="#590bb2"/><path d="m147.748 159.64h-56.32c-1.659 0-3.004-1.345-3.004-3.004v-39.989c0-1.659 1.345-3.004 3.004-3.004h56.319c1.659 0 3.004 1.345 3.004 3.004v39.989c0 1.66-1.344 3.004-3.003 3.004z" fill="#ffd5b8"/><path d="m147.748 220.476h-56.32c-1.659 0-3.004-1.345-3.004-3.004v-39.989c0-1.659 1.345-3.004 3.004-3.004h56.319c1.659 0 3.004 1.345 3.004 3.004v39.989c0 1.66-1.344 3.004-3.003 3.004z" fill="#ffbe92"/><path d="m147.748 281.312h-56.32c-1.659 0-3.004-1.345-3.004-3.004v-39.988c0-1.659 1.345-3.004 3.004-3.004h56.319c1.659 0 3.004 1.345 3.004 3.004v39.989c0 1.658-1.344 3.003-3.003 3.003z" fill="#ffa052"/><path d="m147.748 342.148h-56.32c-1.659 0-3.004-1.345-3.004-3.004v-39.989c0-1.659 1.345-3.004 3.004-3.004h56.319c1.659 0 3.004 1.345 3.004 3.004v39.989c0 1.659-1.344 3.004-3.003 3.004z" fill="#ff8736"/><path d="m109.916 364.478h19.344c2.227 0 4.032-1.805 4.032-4.032s-1.805-4.032-4.032-4.032h-19.344c-2.227 0-4.032 1.805-4.032 4.032s1.805 4.032 4.032 4.032z" fill="#ddd9e4"/><path d="m301.019 431.642h-90.037c-5.529 0-10.012-4.482-10.012-10.012v-320.379c0-5.529 4.482-10.012 10.012-10.012h90.037c5.529 0 10.012 4.482 10.012 10.012v320.379c-.001 5.529-4.483 10.012-10.012 10.012z" fill="#f5f4f9"/><path d="m301.019 436.642h-90.037c-8.277 0-15.012-6.734-15.012-15.012v-320.379c0-8.277 6.734-15.012 15.012-15.012h26.911c1.349 0 2.64.545 3.582 1.511.941.966 1.452 2.271 1.417 3.62-.003.118-.01.236-.019.354-.08 2.691-2.287 4.849-4.998 4.849-.635 0-1.242-.118-1.8-.334h-25.093c-2.764 0-5.012 2.248-5.012 5.012v320.379c0 2.764 2.248 5.012 5.012 5.012h90.037c2.764 0 5.012-2.248 5.012-5.012v-320.379c0-2.764-2.248-5.012-5.012-5.012h-33.77c-.559.216-1.166.334-1.801.334-2.712 0-4.919-2.158-4.998-4.851-.009-.128-.015-.239-.018-.353-.035-1.349.476-2.654 1.417-3.62.94-.966 2.232-1.511 3.581-1.511h35.588c8.277 0 15.012 6.734 15.012 15.012v320.38c0 8.277-6.734 15.012-15.011 15.012zm-58.144-345.051v.011c0-.004 0-.007 0-.011zm17.573.001v.003c0-.001 0-.002 0-.003zm-17.573-.019v.016c0-.006 0-.011 0-.016zm17.573 0v.015c0-.005 0-.01 0-.015z" fill="#590bb2"/><path d="m284.16 159.64h-56.32c-1.659 0-3.004-1.345-3.004-3.004v-39.989c0-1.659 1.345-3.004 3.004-3.004h56.319c1.659 0 3.004 1.345 3.004 3.004v39.989c0 1.66-1.344 3.004-3.003 3.004z" fill="#ffe783"/><path d="m284.16 220.476h-56.32c-1.659 0-3.004-1.345-3.004-3.004v-39.989c0-1.659 1.345-3.004 3.004-3.004h56.319c1.659 0 3.004 1.345 3.004 3.004v39.989c0 1.66-1.344 3.004-3.003 3.004z" fill="#fdd250"/><path d="m284.16 281.312h-56.32c-1.659 0-3.004-1.345-3.004-3.004v-39.988c0-1.659 1.345-3.004 3.004-3.004h56.319c1.659 0 3.004 1.345 3.004 3.004v39.989c0 1.658-1.344 3.003-3.003 3.003z" fill="#ffc136"/><path d="m284.16 342.148h-56.32c-1.659 0-3.004-1.345-3.004-3.004v-39.989c0-1.659 1.345-3.004 3.004-3.004h56.319c1.659 0 3.004 1.345 3.004 3.004v39.989c0 1.659-1.344 3.004-3.003 3.004z" fill="#ffab15"/><path d="m246.328 364.478h19.344c2.227 0 4.032-1.805 4.032-4.032s-1.805-4.032-4.032-4.032h-19.344c-2.227 0-4.032 1.805-4.032 4.032s1.805 4.032 4.032 4.032z" fill="#ddd9e4"/><path d="m437.431 431.642h-90.037c-5.529 0-10.012-4.482-10.012-10.012v-320.379c0-5.529 4.482-10.012 10.012-10.012h90.037c5.529 0 10.012 4.482 10.012 10.012v320.379c-.001 5.529-4.483 10.012-10.012 10.012z" fill="#f5f4f9"/><path d="m437.431 436.642h-90.037c-8.277 0-15.012-6.734-15.012-15.012v-320.379c0-8.277 6.734-15.012 15.012-15.012h90.037c8.277 0 15.012 6.734 15.012 15.012v320.379c-.001 8.277-6.735 15.012-15.012 15.012zm-90.037-340.403c-2.764 0-5.012 2.248-5.012 5.012v320.379c0 2.764 2.248 5.012 5.012 5.012h90.037c2.764 0 5.012-2.248 5.012-5.012v-320.379c0-2.764-2.248-5.012-5.012-5.012z" fill="#590bb2"/><path d="m420.572 159.64h-56.319c-1.659 0-3.004-1.345-3.004-3.004v-39.989c0-1.659 1.345-3.004 3.004-3.004h56.319c1.659 0 3.004 1.345 3.004 3.004v39.989c-.001 1.66-1.345 3.004-3.004 3.004z" fill="#d6b0ff"/><path d="m420.572 220.476h-56.319c-1.659 0-3.004-1.345-3.004-3.004v-39.989c0-1.659 1.345-3.004 3.004-3.004h56.319c1.659 0 3.004 1.345 3.004 3.004v39.989c-.001 1.66-1.345 3.004-3.004 3.004z" fill="#c182f9"/><path d="m420.572 281.312h-56.319c-1.659 0-3.004-1.345-3.004-3.004v-39.988c0-1.659 1.345-3.004 3.004-3.004h56.319c1.659 0 3.004 1.345 3.004 3.004v39.989c-.001 1.658-1.345 3.003-3.004 3.003z" fill="#b557ff"/><path d="m420.572 342.148h-56.319c-1.659 0-3.004-1.345-3.004-3.004v-39.989c0-1.659 1.345-3.004 3.004-3.004h56.319c1.659 0 3.004 1.345 3.004 3.004v39.989c-.001 1.659-1.345 3.004-3.004 3.004z" fill="#9526dd"/><path d="m382.74 364.478h19.344c2.227 0 4.032-1.805 4.032-4.032s-1.805-4.032-4.032-4.032h-19.344c-2.227 0-4.032 1.805-4.032 4.032s1.805 4.032 4.032 4.032z" fill="#ddd9e4"/><path d="m139.014 73.558c-2.761 0-5-2.238-5-5 0-3.324-2.705-6.028-6.029-6.028-2.761 0-5-2.238-5-5s2.239-5 5-5c3.324 0 6.029-2.705 6.029-6.029 0-2.762 2.239-5 5-5s5 2.238 5 5c0 3.324 2.704 6.029 6.028 6.029 2.761 0 5 2.238 5 5s-2.239 5-5 5c-3.324 0-6.028 2.704-6.028 6.028 0 2.761-2.239 5-5 5z" fill="#ffe783"/><path d="m320.204 480.5c-2.762 0-5-2.238-5-5 0-3.324-2.704-6.028-6.028-6.028-2.762 0-5-2.238-5-5s2.238-5 5-5c3.324 0 6.028-2.705 6.028-6.029 0-2.762 2.238-5 5-5s5 2.238 5 5c0 3.324 2.705 6.029 6.029 6.029 2.762 0 5 2.238 5 5s-2.238 5-5 5c-3.324 0-6.029 2.704-6.029 6.028 0 2.762-2.238 5-5 5z" fill="#c182f9"/><path d="m194.154 63.515c-1.326 0-2.598-.526-3.536-1.465l-11.007-11.008c-1.953-1.952-1.953-5.118 0-7.07l11.007-11.007c1.953-1.953 5.118-1.953 7.071 0l11.007 11.007c.938.938 1.464 2.209 1.464 3.535s-.527 2.598-1.464 3.535l-11.007 11.008c-.937.937-2.209 1.465-3.535 1.465zm-3.936-16.008 3.936 3.937 3.936-3.937-3.936-3.936z" fill="#ffa052"/><path d="m267.007 480.479c-1.279 0-2.56-.488-3.535-1.465l-11.007-11.007c-1.953-1.952-1.953-5.118 0-7.07l11.006-11.008c.938-.938 2.21-1.465 3.536-1.465s2.598.526 3.535 1.465l11.008 11.008c.938.938 1.465 2.209 1.465 3.535s-.527 2.598-1.465 3.536l-11.008 11.007c-.976.975-2.256 1.464-3.535 1.464zm-3.936-16.007 3.936 3.936 3.937-3.936-3.937-3.937z" fill="#ffa052"/></svg>