<svg id="Layer_1" data-name="Layer 1" xmlns="http://www.w3.org/2000/svg" xmlns:xlink="http://www.w3.org/1999/xlink" viewBox="0 0 792 612"><defs><style>.cls-1{fill:url(#Безымянный_градиент_26);}.cls-2{font-size:19.12px;fill:#8996a5;font-family:Metropolis-Light, Metropolis;}.cls-3{letter-spacing:-0.06em;}.cls-4{fill:none;stroke:#84a3ba;stroke-miterlimit:10;stroke-width:0.5px;}.cls-5{font-size:55.45px;fill:#84a3ba;font-family:BebasNeueRegular, Bebas Neue;}</style><linearGradient id="Безымянный_градиент_26" x1="400.79" y1="12.91" x2="417.22" y2="561.29" gradientUnits="userSpaceOnUse"><stop offset="0.28" stop-color="#fcb22e"/><stop offset="1" stop-color="#f47d48"/></linearGradient></defs><title>chart</title><path class="cls-1" d="M88.07,394.69c17.6-2.15,31-14,36-19.77,10.34-12,21.33-24,30.78-30.86l2.77-2a28.76,28.76,0,0,1,40.7,7.14L212,369.46a28.76,28.76,0,0,0,45.89,2.3l9.77-11.7a28.76,28.76,0,0,1,40.51-3.65h0a28.76,28.76,0,0,0,45.19-11.55l21.08-53.55a28.76,28.76,0,0,1,48.1-8.75l15.92,17.61A28.76,28.76,0,0,0,450,307.93l37.18,13.49a28.76,28.76,0,0,1,14,10.9l20.5,30.25a28.76,28.76,0,0,0,48.88-2l25.88-46a28.76,28.76,0,0,1,11.15-11.07l15.46-8.55A28.76,28.76,0,0,1,663.93,310l31.32,62.85c7.74,15.52,28.38,20.54,41.13,21.81"/><text class="cls-2" transform="translate(85.47 441.39)">Mon</text><text class="cls-2" transform="translate(195.44 441.39)">Tue</text><text class="cls-2" transform="translate(298.28 441.39)"><tspan class="cls-3">W</tspan><tspan x="19.31" y="0">ed</tspan></text><text class="cls-2" transform="translate(403.74 441.39)">Thu</text><text class="cls-2" transform="translate(491.41 441.39)">Fri</text><text class="cls-2" transform="translate(593.86 441.39)">Sat</text><text class="cls-2" transform="translate(716.83 441.39)">Sun</text><text class="cls-2" transform="translate(19.46 380.6)">8:00</text><text class="cls-2" transform="translate(19.46 334.71)">12:00</text><text class="cls-2" transform="translate(19.46 290.42)">16:00</text><text class="cls-2" transform="translate(19.46 248.54)">20:00</text><polyline class="cls-4" points="86.79 213.61 86.79 395.25 753.07 395.25"/><text class="cls-5" transform="translate(174.53 287.7)">3 589</text></svg>